<?xml version="1.0" encoding="iso-8859-1"?>
<!-- Generator: Adobe Illustrator 19.0.0, SVG Export Plug-In . SVG Version: 6.00 Build 0)  -->
<svg version="1.1" id="Capa_1" xmlns="http://www.w3.org/2000/svg" xmlns:xlink="http://www.w3.org/1999/xlink" x="0px" y="0px"
	 viewBox="0 0 368 368" style="enable-background:new 0 0 368 368;" xml:space="preserve">
<path style="fill:#CCE4FF;" d="M280,104c44.16,0,80,35.84,80,80s-35.84,80-80,80H88c44.16,0,80-35.84,80-80s-35.84-80-80-80H280z"/>
<path style="fill:#007AFF;" d="M280,96H88c-48.52,0-88,39.48-88,88s39.48,88,88,88h192c48.52,0,88-39.48,88-88S328.52,96,280,96z
	 M16,184c0-39.704,32.304-72,72-72s72,32.296,72,72s-32.304,72-72,72S16,223.704,16,184z M280,256H138.44
	c22.672-15.936,37.56-42.24,37.56-72s-14.888-56.064-37.56-72H280c39.696,0,72,32.296,72,72S319.696,256,280,256z"/>
<g>
</g>
<g>
</g>
<g>
</g>
<g>
</g>
<g>
</g>
<g>
</g>
<g>
</g>
<g>
</g>
<g>
</g>
<g>
</g>
<g>
</g>
<g>
</g>
<g>
</g>
<g>
</g>
<g>
</g>
</svg>
